<mxfile host="Electron" modified="2024-03-14T23:06:15.985Z" agent="Mozilla/5.0 (Windows NT 10.0; Win64; x64) AppleWebKit/537.36 (KHTML, like Gecko) draw.io/22.1.16 Chrome/120.0.6099.109 Electron/28.1.0 Safari/537.36" etag="IMkwsI5kuVDxEuXo2pY9" version="22.1.16" type="device">
  <diagram name="Page-1" id="bqI-MZ1m4osqprcRlUwq">
    <mxGraphModel dx="1084" dy="1184" grid="1" gridSize="10" guides="1" tooltips="1" connect="1" arrows="1" fold="1" page="1" pageScale="1" pageWidth="850" pageHeight="1100" math="0" shadow="0">
      <root>
        <mxCell id="0" />
        <mxCell id="1" parent="0" />
        <mxCell id="XL0xA0le4rAwl1IBL3_l-13" style="edgeStyle=orthogonalEdgeStyle;rounded=0;orthogonalLoop=1;jettySize=auto;html=1;" parent="1" source="XL0xA0le4rAwl1IBL3_l-1" target="XL0xA0le4rAwl1IBL3_l-3" edge="1">
          <mxGeometry relative="1" as="geometry" />
        </mxCell>
        <mxCell id="XL0xA0le4rAwl1IBL3_l-1" value="NO Data Schema" style="rounded=0;whiteSpace=wrap;html=1;fillColor=#76608a;fontColor=#ffffff;strokeColor=#432D57;" parent="1" vertex="1">
          <mxGeometry x="200" y="350" width="210" height="40" as="geometry" />
        </mxCell>
        <mxCell id="XL0xA0le4rAwl1IBL3_l-3" value="No Structure required!" style="rounded=0;whiteSpace=wrap;html=1;fillColor=#76608a;fontColor=#ffffff;strokeColor=#432D57;" parent="1" vertex="1">
          <mxGeometry x="460" y="350" width="210" height="40" as="geometry" />
        </mxCell>
        <mxCell id="XL0xA0le4rAwl1IBL3_l-14" value="{ name, id, age }" style="rounded=0;whiteSpace=wrap;html=1;fillColor=#e1d5e7;strokeColor=#9673a6;" parent="1" vertex="1">
          <mxGeometry x="220" y="400" width="170" height="30" as="geometry" />
        </mxCell>
        <mxCell id="XL0xA0le4rAwl1IBL3_l-17" style="edgeStyle=orthogonalEdgeStyle;rounded=0;orthogonalLoop=1;jettySize=auto;html=1;" parent="1" source="XL0xA0le4rAwl1IBL3_l-18" target="XL0xA0le4rAwl1IBL3_l-19" edge="1">
          <mxGeometry relative="1" as="geometry" />
        </mxCell>
        <mxCell id="XL0xA0le4rAwl1IBL3_l-18" value="No Data Relations" style="rounded=0;whiteSpace=wrap;html=1;fillColor=#76608a;fontColor=#ffffff;strokeColor=#432D57;" parent="1" vertex="1">
          <mxGeometry x="200" y="520" width="210" height="40" as="geometry" />
        </mxCell>
        <mxCell id="XL0xA0le4rAwl1IBL3_l-19" value="No / Few Connections" style="rounded=0;whiteSpace=wrap;html=1;fillColor=#f8cecc;strokeColor=#b85450;" parent="1" vertex="1">
          <mxGeometry x="460" y="520" width="210" height="40" as="geometry" />
        </mxCell>
        <mxCell id="XL0xA0le4rAwl1IBL3_l-23" value=" You CAN relate documents but you don‘t have to (and you shouldn‘t do it too much or your queries become slow)" style="rounded=0;whiteSpace=wrap;html=1;fillColor=#fff2cc;strokeColor=#d6b656;" parent="1" vertex="1">
          <mxGeometry x="190" y="570" width="230" height="60" as="geometry" />
        </mxCell>
        <mxCell id="Sr420C_oZJKnBr34O_Or-1" value="{ id, age }" style="rounded=0;whiteSpace=wrap;html=1;fillColor=#e1d5e7;strokeColor=#9673a6;" vertex="1" parent="1">
          <mxGeometry x="220" y="440" width="170" height="30" as="geometry" />
        </mxCell>
      </root>
    </mxGraphModel>
  </diagram>
</mxfile>
